# xmcd
#
# Track frame offsets:
#	225
#	16610
#	41952
#	66962
#	83580
#	104685
#	120137
#	145835
#	159172
#	183040
#	207550
#	229557
#	251812
#	276442
#	296190
#
# Disc length: 4315 seconds
#
# Revision: 3
# Processed by: cddbd v1.4PL0 Copyright (c) Steve Scherf et al.
# Submitted via: EasyCDDAExtractor 4.5.2.1
#
DISCID=d210d80f
DTITLE=Scooter - Hit Collection
DYEAR=1997
DGENRE=Dance
TTITLE0=I'm raving
TTITLE1=B-Side
TTITLE2=Move your ass !
TTITLE3=Rebel yell
TTITLE4=Friends
TTITLE5=Back in the U.K.
TTITLE6=Let me be your Valentine
TTITLE7=Last minute
TTITLE8=Hysteria
TTITLE9=Our happy hardcore
TTITLE10=Stuttgart
TTITLE11=Hyper hyper
TTITLE12=Different reality
TTITLE13=This is a monstertune
TTITLE14=Love message
EXTD=
EXTT0=
EXTT1=
EXTT2=
EXTT3=
EXTT4=
EXTT5=
EXTT6=
EXTT7=
EXTT8=
EXTT9=
EXTT10=
EXTT11=
EXTT12=
EXTT13=
EXTT14=
PLAYORDER=
